<svg width="735" height="233" viewBox="0 0 735 233" fill="none" xmlns="http://www.w3.org/2000/svg">
<g clip-path="url(#clip0_738_29)">
<path d="M35.76 59.2V27.52H50.64V59.2H35.76ZM50.1506 59.2V27.52H65.0306V59.2H50.1506ZM64.5412 59.2V27.52H79.4213V59.2H64.5412ZM78.9319 59.2V27.52H93.8119V59.2H78.9319ZM93.3225 59.2V27.52H108.203V59.2H93.3225ZM107.713 59.2V27.52H122.593V59.2H107.713ZM122.104 59.2V27.52H136.984V59.2H122.104ZM145.134 59.2V41.92H136.254V39.52H147.534V59.2H145.134ZM140.334 59.2V46.72H136.254V44.32H142.734V59.2H140.334ZM150.885 59.2V27.52H165.765V59.2H150.885ZM165.276 59.2V27.52H180.156V59.2H165.276ZM188.306 59.2V41.92H179.426V39.52H190.706V59.2H188.306ZM183.506 59.2V46.72H179.426V44.32H185.906V59.2H183.506ZM222.838 59.2V27.52H237.718V59.2H222.838ZM237.229 59.2V27.52H252.109V59.2H237.229ZM260.259 59.2V41.92H251.379V39.52H262.659V59.2H260.259ZM255.459 59.2V46.72H251.379V44.32H257.859V59.2H255.459ZM266.01 59.2V27.52H280.89V59.2H266.01ZM280.401 59.2V27.52H295.281V59.2H280.401ZM303.431 59.2V41.92H294.551V39.52H305.831V59.2H303.431ZM298.631 59.2V46.72H294.551V44.32H301.031V59.2H298.631ZM309.182 59.2V27.52H324.062V59.2H309.182ZM323.572 59.2V27.52H338.453V59.2H323.572ZM337.963 59.2V27.52H352.843V59.2H337.963ZM352.354 59.2V27.52H367.234V59.2H352.354ZM366.744 59.2V27.52H381.624V59.2H366.744ZM381.135 59.2V27.52H396.015V59.2H381.135ZM404.166 59.2V41.92H395.286V39.52H406.566V59.2H404.166ZM399.366 59.2V46.72H395.286V44.32H401.766V59.2H399.366ZM481.869 59.2V27.52H496.749V59.2H481.869ZM496.26 59.2V27.52H511.14V59.2H496.26ZM510.651 59.2V27.52H525.531V59.2H510.651ZM525.041 59.2V27.52H539.921V59.2H525.041ZM539.432 59.2V27.52H554.312V59.2H539.432ZM553.822 59.2V27.52H568.703V59.2H553.822ZM576.853 59.2V41.92H567.973V39.52H579.253V59.2H576.853ZM572.053 59.2V46.72H567.973V44.32H574.453V59.2H572.053ZM611.385 59.2V27.52H626.265V59.2H611.385ZM625.776 59.2V27.52H640.656V59.2H625.776ZM640.166 59.2V27.52H655.046V59.2H640.166ZM654.557 59.2V27.52H669.437V59.2H654.557ZM668.947 59.2V27.52H683.828V59.2H668.947ZM691.978 59.2V41.92H683.098V39.52H694.378V59.2H691.978ZM687.178 59.2V46.72H683.098V44.32H689.578V59.2H687.178ZM35.76 91.2V59.52H50.64V91.2H35.76ZM50.1506 91.2V59.52H65.0306V91.2H50.1506ZM68.3813 91.2V71.52H79.6613V73.92H70.7812V91.2H68.3813ZM73.1813 91.2V76.32H79.6613V78.72H75.5813V91.2H73.1813ZM78.6919 73.92V71.52H94.0519V73.92H78.6919ZM78.6919 78.72V76.32H94.0519V78.72H78.6919ZM93.0825 73.92V71.52H108.443V73.92H93.0825ZM93.0825 78.72V76.32H108.443V78.72H93.0825ZM107.473 73.92V71.52H122.833V73.92H107.473ZM107.473 78.72V76.32H122.833V78.72H107.473ZM121.864 73.92V71.52H137.224V73.92H121.864ZM121.864 78.72V76.32H137.224V78.72H121.864ZM136.254 78.72V76.32H145.134V59.52H147.534V78.72H136.254ZM136.254 73.92V71.52H140.334V59.52H142.734V73.92H136.254ZM150.885 91.2V59.52H165.765V91.2H150.885ZM165.276 91.2V59.52H180.156V91.2H165.276ZM188.306 91.2V59.52H190.706V91.2H188.306ZM183.506 91.2V59.52H185.906V91.2H183.506ZM222.838 91.2V59.52H237.718V91.2H222.838ZM237.229 91.2V59.52H252.109V91.2H237.229ZM260.259 91.2V59.52H262.659V91.2H260.259ZM255.459 91.2V59.52H257.859V91.2H255.459ZM266.01 91.2V59.52H280.89V91.2H266.01ZM280.401 91.2V59.52H295.281V91.2H280.401ZM303.431 91.2V59.52H305.831V91.2H303.431ZM298.631 91.2V59.52H301.031V91.2H298.631ZM309.182 91.2V59.52H324.062V91.2H309.182ZM323.572 91.2V59.52H338.453V91.2H323.572ZM341.803 91.2V71.52H353.083V73.92H344.203V91.2H341.803ZM346.603 91.2V76.32H353.083V78.72H349.003V91.2H346.603ZM352.114 73.92V71.52H367.474V73.92H352.114ZM352.114 78.72V76.32H367.474V78.72H352.114ZM366.504 73.92V71.52H381.864V73.92H366.504ZM366.504 78.72V76.32H381.864V78.72H366.504ZM381.135 91.2V59.52H396.015V91.2H381.135ZM395.526 91.2V59.52H410.406V91.2H395.526ZM418.556 91.2V73.92H409.676V71.52H420.956V91.2H418.556ZM413.756 91.2V78.72H409.676V76.32H416.156V91.2H413.756ZM481.869 91.2V59.52H496.749V91.2H481.869ZM496.26 91.2V59.52H511.14V91.2H496.26ZM514.491 91.2V71.52H525.771V73.92H516.891V91.2H514.491ZM519.291 91.2V76.32H525.771V78.72H521.691V91.2H519.291ZM524.801 73.92V71.52H540.161V73.92H524.801ZM524.801 78.72V76.32H540.161V78.72H524.801ZM539.192 73.92V71.52H554.552V73.92H539.192ZM539.192 78.72V76.32H554.552V78.72H539.192ZM553.822 91.2V59.52H568.703V91.2H553.822ZM568.213 91.2V59.52H583.093V91.2H568.213ZM591.244 91.2V73.92H582.364V71.52H593.644V91.2H591.244ZM586.444 91.2V78.72H582.364V76.32H588.844V91.2H586.444ZM596.994 91.2V59.52H611.874V91.2H596.994ZM611.385 91.2V59.52H626.265V91.2H611.385ZM629.616 91.2V71.52H640.896V73.92H632.016V91.2H629.616ZM634.416 91.2V76.32H640.896V78.72H636.816V91.2H634.416ZM639.926 73.92V71.52H655.286V73.92H639.926ZM639.926 78.72V76.32H655.286V78.72H639.926ZM654.317 73.92V71.52H669.677V73.92H654.317ZM654.317 78.72V76.32H669.677V78.72H654.317ZM668.947 91.2V59.52H683.828V91.2H668.947ZM683.338 91.2V59.52H698.218V91.2H683.338ZM706.369 91.2V73.92H697.489V71.52H708.769V91.2H706.369ZM701.569 91.2V78.72H697.489V76.32H703.969V91.2H701.569ZM35.76 123.2V91.52H50.64V123.2H35.76ZM50.1506 123.2V91.52H65.0306V123.2H50.1506ZM64.5412 123.2V91.52H79.4213V123.2H64.5412ZM78.9319 123.2V91.52H93.8119V123.2H78.9319ZM93.3225 123.2V91.52H108.203V123.2H93.3225ZM107.713 123.2V91.52H122.593V123.2H107.713ZM122.104 123.2V91.52H136.984V123.2H122.104ZM145.134 123.2V105.92H136.254V103.52H147.534V123.2H145.134ZM140.334 123.2V110.72H136.254V108.32H142.734V123.2H140.334ZM150.885 123.2V91.52H165.765V123.2H150.885ZM165.276 123.2V91.52H180.156V123.2H165.276ZM179.666 123.2V91.52H194.546V123.2H179.666ZM194.057 123.2V91.52H208.937V123.2H194.057ZM208.447 123.2V91.52H223.328V123.2H208.447ZM222.838 123.2V91.52H237.718V123.2H222.838ZM237.229 123.2V91.52H252.109V123.2H237.229ZM260.259 123.2V91.52H262.659V123.2H260.259ZM255.459 123.2V91.52H257.859V123.2H255.459ZM266.01 123.2V91.52H280.89V123.2H266.01ZM280.401 123.2V91.52H295.281V123.2H280.401ZM303.431 123.2V91.52H305.831V123.2H303.431ZM298.631 123.2V91.52H301.031V123.2H298.631ZM309.182 123.2V91.52H324.062V123.2H309.182ZM323.572 123.2V91.52H338.453V123.2H323.572ZM337.963 123.2V91.52H352.843V123.2H337.963ZM352.354 123.2V91.52H367.234V123.2H352.354ZM366.744 123.2V91.52H381.624V123.2H366.744ZM381.135 123.2V91.52H396.015V123.2H381.135ZM399.366 123.2V103.52H410.646V105.92H401.766V123.2H399.366ZM404.166 123.2V108.32H410.646V110.72H406.566V123.2H404.166ZM409.676 110.72V108.32H418.556V91.52H420.956V110.72H409.676ZM409.676 105.92V103.52H413.756V91.52H416.156V105.92H409.676ZM481.869 123.2V91.52H496.749V123.2H481.869ZM496.26 123.2V91.52H511.14V123.2H496.26ZM510.651 123.2V91.52H525.531V123.2H510.651ZM525.041 123.2V91.52H539.921V123.2H525.041ZM539.432 123.2V91.52H554.312V123.2H539.432ZM553.822 123.2V91.52H568.703V123.2H553.822ZM572.053 123.2V103.52H583.333V105.92H574.453V123.2H572.053ZM576.853 123.2V108.32H583.333V110.72H579.253V123.2H576.853ZM582.364 110.72V108.32H591.244V91.52H593.644V110.72H582.364ZM582.364 105.92V103.52H586.444V91.52H588.844V105.92H582.364ZM596.994 123.2V91.52H611.874V123.2H596.994ZM611.385 123.2V91.52H626.265V123.2H611.385ZM625.776 123.2V91.52H640.656V123.2H625.776ZM640.166 123.2V91.52H655.046V123.2H640.166ZM654.557 123.2V91.52H669.437V123.2H654.557ZM668.947 123.2V91.52H683.828V123.2H668.947ZM683.338 123.2V91.52H698.218V123.2H683.338ZM706.369 123.2V91.52H708.769V123.2H706.369ZM701.569 123.2V91.52H703.969V123.2H701.569ZM39.6 142.72V123.52H42V140.32H50.88V142.72H39.6ZM44.4 137.92V123.52H46.8V135.52H50.88V137.92H44.4ZM49.9106 137.92V135.52H65.2706V137.92H49.9106ZM49.9106 142.72V140.32H65.2706V142.72H49.9106ZM64.3012 137.92V135.52H79.6613V137.92H64.3012ZM64.3012 142.72V140.32H79.6613V142.72H64.3012ZM78.6919 137.92V135.52H94.0519V137.92H78.6919ZM78.6919 142.72V140.32H94.0519V142.72H78.6919ZM93.0825 137.92V135.52H108.443V137.92H93.0825ZM93.0825 142.72V140.32H108.443V142.72H93.0825ZM107.713 155.2V123.52H122.593V155.2H107.713ZM122.104 155.2V123.52H136.984V155.2H122.104ZM145.134 155.2V123.52H147.534V155.2H145.134ZM140.334 155.2V123.52H142.734V155.2H140.334ZM150.885 155.2V123.52H165.765V155.2H150.885ZM165.276 155.2V123.52H180.156V155.2H165.276ZM183.506 155.2V135.52H194.786V137.92H185.906V155.2H183.506ZM188.306 155.2V140.32H194.786V142.72H190.706V155.2H188.306ZM193.817 137.92V135.52H209.177V137.92H193.817ZM193.817 142.72V140.32H209.177V142.72H193.817ZM208.207 137.92V135.52H223.568V137.92H208.207ZM208.207 142.72V140.32H223.568V142.72H208.207ZM222.838 155.2V123.52H237.718V155.2H222.838ZM237.229 155.2V123.52H252.109V155.2H237.229ZM260.259 155.2V123.52H262.659V155.2H260.259ZM255.459 155.2V123.52H257.859V155.2H255.459ZM266.01 155.2V123.52H280.89V155.2H266.01ZM280.401 155.2V123.52H295.281V155.2H280.401ZM303.431 155.2V123.52H305.831V155.2H303.431ZM298.631 155.2V123.52H301.031V155.2H298.631ZM309.182 155.2V123.52H324.062V155.2H309.182ZM323.572 155.2V123.52H338.453V155.2H323.572ZM341.803 155.2V135.52H353.083V137.92H344.203V155.2H341.803ZM346.603 155.2V140.32H353.083V142.72H349.003V155.2H346.603ZM352.114 137.92V135.52H367.474V137.92H352.114ZM352.114 142.72V140.32H367.474V142.72H352.114ZM366.504 137.92V135.52H381.864V137.92H366.504ZM366.504 142.72V140.32H381.864V142.72H366.504ZM380.895 137.92V135.52H396.255V137.92H380.895ZM380.895 142.72V140.32H396.255V142.72H380.895ZM395.286 142.72V140.32H404.166V123.52H406.566V142.72H395.286ZM395.286 137.92V135.52H399.366V123.52H401.766V137.92H395.286ZM481.869 155.2V123.52H496.749V155.2H481.869ZM496.26 155.2V123.52H511.14V155.2H496.26ZM514.491 155.2V135.52H525.771V137.92H516.891V155.2H514.491ZM519.291 155.2V140.32H525.771V142.72H521.691V155.2H519.291ZM524.801 137.92V135.52H540.161V137.92H524.801ZM524.801 142.72V140.32H540.161V142.72H524.801ZM539.192 137.92V135.52H554.552V137.92H539.192ZM539.192 142.72V140.32H554.552V142.72H539.192ZM553.822 155.2V123.52H568.703V155.2H553.822ZM568.213 155.2V123.52H583.093V155.2H568.213ZM591.244 155.2V137.92H582.364V135.52H593.644V155.2H591.244ZM586.444 155.2V142.72H582.364V140.32H588.844V155.2H586.444ZM596.994 155.2V123.52H611.874V155.2H596.994ZM611.385 155.2V123.52H626.265V155.2H611.385ZM629.616 155.2V135.52H640.896V137.92H632.016V155.2H629.616ZM634.416 155.2V140.32H640.896V142.72H636.816V155.2H634.416ZM639.926 137.92V135.52H655.286V137.92H639.926ZM639.926 142.72V140.32H655.286V142.72H639.926ZM654.317 137.92V135.52H669.677V137.92H654.317ZM654.317 142.72V140.32H669.677V142.72H654.317ZM668.947 155.2V123.52H683.828V155.2H668.947ZM683.338 155.2V123.52H698.218V155.2H683.338ZM706.369 155.2V123.52H708.769V155.2H706.369ZM701.569 155.2V123.52H703.969V155.2H701.569ZM35.76 187.2V155.52H50.64V187.2H35.76ZM50.1506 187.2V155.52H65.0306V187.2H50.1506ZM64.5412 187.2V155.52H79.4213V187.2H64.5412ZM78.9319 187.2V155.52H93.8119V187.2H78.9319ZM93.3225 187.2V155.52H108.203V187.2H93.3225ZM107.713 187.2V155.52H122.593V187.2H107.713ZM122.104 187.2V155.52H136.984V187.2H122.104ZM145.134 187.2V155.52H147.534V187.2H145.134ZM140.334 187.2V155.52H142.734V187.2H140.334ZM150.885 187.2V155.52H165.765V187.2H150.885ZM165.276 187.2V155.52H180.156V187.2H165.276ZM188.306 187.2V155.52H190.706V187.2H188.306ZM183.506 187.2V155.52H185.906V187.2H183.506ZM222.838 187.2V155.52H237.718V187.2H222.838ZM237.229 187.2V155.52H252.109V187.2H237.229ZM260.259 187.2V155.52H262.659V187.2H260.259ZM255.459 187.2V155.52H257.859V187.2H255.459ZM266.01 187.2V155.52H280.89V187.2H266.01ZM280.401 187.2V155.52H295.281V187.2H280.401ZM303.431 187.2V155.52H305.831V187.2H303.431ZM298.631 187.2V155.52H301.031V187.2H298.631ZM309.182 187.2V155.52H324.062V187.2H309.182ZM323.572 187.2V155.52H338.453V187.2H323.572ZM346.603 187.2V155.52H349.003V187.2H346.603ZM341.803 187.2V155.52H344.203V187.2H341.803ZM481.869 187.2V155.52H496.749V187.2H481.869ZM496.26 187.2V155.52H511.14V187.2H496.26ZM510.651 187.2V155.52H525.531V187.2H510.651ZM525.041 187.2V155.52H539.921V187.2H525.041ZM539.432 187.2V155.52H554.312V187.2H539.432ZM553.822 187.2V155.52H568.703V187.2H553.822ZM572.053 187.2V167.52H583.333V169.92H574.453V187.2H572.053ZM576.853 187.2V172.32H583.333V174.72H579.253V187.2H576.853ZM582.364 174.72V172.32H591.244V155.52H593.644V174.72H582.364ZM582.364 169.92V167.52H586.444V155.52H588.844V169.92H582.364ZM596.994 187.2V155.52H611.874V187.2H596.994ZM611.385 187.2V155.52H626.265V187.2H611.385ZM634.416 187.2V155.52H636.816V187.2H634.416ZM629.616 187.2V155.52H632.016V187.2H629.616ZM668.947 187.2V155.52H683.828V187.2H668.947ZM683.338 187.2V155.52H698.218V187.2H683.338ZM706.369 187.2V155.52H708.769V187.2H706.369ZM701.569 187.2V155.52H703.969V187.2H701.569ZM39.6 206.72V187.52H42V204.32H50.88V206.72H39.6ZM44.4 201.92V187.52H46.8V199.52H50.88V201.92H44.4ZM49.9106 201.92V199.52H65.2706V201.92H49.9106ZM49.9106 206.72V204.32H65.2706V206.72H49.9106ZM64.3012 201.92V199.52H79.6613V201.92H64.3012ZM64.3012 206.72V204.32H79.6613V206.72H64.3012ZM78.6919 201.92V199.52H94.0519V201.92H78.6919ZM78.6919 206.72V204.32H94.0519V206.72H78.6919ZM93.0825 201.92V199.52H108.443V201.92H93.0825ZM93.0825 206.72V204.32H108.443V206.72H93.0825ZM107.473 201.92V199.52H122.833V201.92H107.473ZM107.473 206.72V204.32H122.833V206.72H107.473ZM121.864 201.92V199.52H137.224V201.92H121.864ZM121.864 206.72V204.32H137.224V206.72H121.864ZM136.254 206.72V204.32H145.134V187.52H147.534V206.72H136.254ZM136.254 201.92V199.52H140.334V187.52H142.734V201.92H136.254ZM154.725 206.72V187.52H157.125V204.32H166.005V206.72H154.725ZM159.525 201.92V187.52H161.925V199.52H166.005V201.92H159.525ZM165.036 201.92V199.52H180.396V201.92H165.036ZM165.036 206.72V204.32H180.396V206.72H165.036ZM179.426 206.72V204.32H188.306V187.52H190.706V206.72H179.426ZM179.426 201.92V199.52H183.506V187.52H185.906V201.92H179.426ZM226.678 206.72V187.52H229.078V204.32H237.958V206.72H226.678ZM231.478 201.92V187.52H233.878V199.52H237.958V201.92H231.478ZM236.989 201.92V199.52H252.349V201.92H236.989ZM236.989 206.72V204.32H252.349V206.72H236.989ZM251.379 206.72V204.32H260.259V187.52H262.659V206.72H251.379ZM251.379 201.92V199.52H255.459V187.52H257.859V201.92H251.379ZM269.85 206.72V187.52H272.25V204.32H281.13V206.72H269.85ZM274.65 201.92V187.52H277.05V199.52H281.13V201.92H274.65ZM280.161 201.92V199.52H295.521V201.92H280.161ZM280.161 206.72V204.32H295.521V206.72H280.161ZM294.551 206.72V204.32H303.431V187.52H305.831V206.72H294.551ZM294.551 201.92V199.52H298.631V187.52H301.031V201.92H294.551ZM313.022 206.72V187.52H315.422V204.32H324.302V206.72H313.022ZM317.822 201.92V187.52H320.222V199.52H324.302V201.92H317.822ZM323.332 201.92V199.52H338.693V201.92H323.332ZM323.332 206.72V204.32H338.693V206.72H323.332ZM337.723 206.72V204.32H346.603V187.52H349.003V206.72H337.723ZM337.723 201.92V199.52H341.803V187.52H344.203V201.92H337.723ZM485.709 206.72V187.52H488.109V204.32H496.989V206.72H485.709ZM490.509 201.92V187.52H492.909V199.52H496.989V201.92H490.509ZM496.02 201.92V199.52H511.38V201.92H496.02ZM496.02 206.72V204.32H511.38V206.72H496.02ZM510.411 201.92V199.52H525.771V201.92H510.411ZM510.411 206.72V204.32H525.771V206.72H510.411ZM524.801 201.92V199.52H540.161V201.92H524.801ZM524.801 206.72V204.32H540.161V206.72H524.801ZM539.192 201.92V199.52H554.552V201.92H539.192ZM539.192 206.72V204.32H554.552V206.72H539.192ZM553.582 201.92V199.52H568.943V201.92H553.582ZM553.582 206.72V204.32H568.943V206.72H553.582ZM567.973 206.72V204.32H576.853V187.52H579.253V206.72H567.973ZM567.973 201.92V199.52H572.053V187.52H574.453V201.92H567.973ZM600.834 206.72V187.52H603.234V204.32H612.114V206.72H600.834ZM605.634 201.92V187.52H608.034V199.52H612.114V201.92H605.634ZM611.145 201.92V199.52H626.505V201.92H611.145ZM611.145 206.72V204.32H626.505V206.72H611.145ZM625.536 206.72V204.32H634.416V187.52H636.816V206.72H625.536ZM625.536 201.92V199.52H629.616V187.52H632.016V201.92H625.536ZM672.788 206.72V187.52H675.188V204.32H684.068V206.72H672.788ZM677.588 201.92V187.52H679.988V199.52H684.068V201.92H677.588ZM683.098 201.92V199.52H698.458V201.92H683.098ZM683.098 206.72V204.32H698.458V206.72H683.098ZM697.489 206.72V204.32H706.369V187.52H708.769V206.72H697.489ZM697.489 201.92V199.52H701.569V187.52H703.969V201.92H697.489Z" fill="white"/>
</g>
<defs>
<clipPath id="clip0_738_29">
<rect width="735" height="233" fill="white"/>
</clipPath>
</defs>
</svg>
